<svg width="8" height="8" viewBox="0 0 8 8" fill="none" xmlns="http://www.w3.org/2000/svg">
<g clip-path="url(#clip0_2007_38)">
<path d="M3.97514 2.42021C3.04948 2.42021 2.30284 3.163 2.30284 4.0839C2.30284 5.00479 3.04948 5.74758 3.97514 5.74758C4.9008 5.74758 5.64745 5.00479 5.64745 4.0839C5.64745 3.163 4.9008 2.42021 3.97514 2.42021ZM3.97514 5.16551C3.37696 5.16551 2.88793 4.68045 2.88793 4.0839C2.88793 3.48734 3.3755 3.00228 3.97514 3.00228C4.57479 3.00228 5.06236 3.48734 5.06236 4.0839C5.06236 4.68045 4.57333 5.16551 3.97514 5.16551V5.16551ZM6.10591 2.35216C6.10591 2.5679 5.93126 2.7402 5.71585 2.7402C5.49899 2.7402 5.32579 2.56645 5.32579 2.35216C5.32579 2.13786 5.50045 1.96411 5.71585 1.96411C5.93126 1.96411 6.10591 2.13786 6.10591 2.35216ZM7.2135 2.746C7.18876 2.22618 7.06942 1.76574 6.68663 1.38638C6.30531 1.00702 5.84248 0.888285 5.31997 0.862222C4.78146 0.831815 3.16737 0.831815 2.62886 0.862222C2.10781 0.886837 1.64498 1.00557 1.2622 1.38493C0.879415 1.76429 0.761524 2.22474 0.735326 2.74455C0.704761 3.28029 0.704761 4.88606 0.735326 5.4218C0.760068 5.94161 0.879415 6.40205 1.2622 6.78142C1.64498 7.16078 2.10635 7.27951 2.62886 7.30557C3.16737 7.33598 4.78146 7.33598 5.31997 7.30557C5.84248 7.28096 6.30531 7.16222 6.68663 6.78142C7.06796 6.40205 7.18731 5.94161 7.2135 5.4218C7.24407 4.88606 7.24407 3.28174 7.2135 2.746V2.746ZM6.5178 5.99663C6.40428 6.28043 6.18451 6.49907 5.89778 6.61345C5.46843 6.78286 4.44962 6.74377 3.97514 6.74377C3.50067 6.74377 2.4804 6.78141 2.0525 6.61345C1.76723 6.50051 1.54746 6.28187 1.43248 5.99663C1.2622 5.56949 1.30149 4.55593 1.30149 4.0839C1.30149 3.61187 1.26365 2.59686 1.43248 2.17116C1.54601 1.88737 1.76578 1.66873 2.0525 1.55434C2.48186 1.38493 3.50067 1.42402 3.97514 1.42402C4.44962 1.42402 5.46988 1.38638 5.89778 1.55434C6.18305 1.66728 6.40282 1.88592 6.5178 2.17116C6.68809 2.59831 6.64879 3.61187 6.64879 4.0839C6.64879 4.55593 6.68809 5.57093 6.5178 5.99663Z" fill="white"/>
</g>
<defs>
<clipPath id="clip0_2007_38">
<rect width="6.58976" height="7.41348" fill="white" transform="translate(0.730957 0.378418)"/>
</clipPath>
</defs>
</svg>
