<svg width="8" height="7" viewBox="0 0 8 7" fill="none" xmlns="http://www.w3.org/2000/svg">
<g clip-path="url(#clip0_2007_33)">
<path d="M2.42523 6.96803V2.79981H1.0273V6.96803H2.42523ZM1.72645 2.23037C2.21393 2.23037 2.51737 1.9103 2.51737 1.51032C2.50828 1.10132 2.21395 0.790131 1.7357 0.790131C1.25752 0.790131 0.944824 1.10132 0.944824 1.51032C0.944824 1.91032 1.24818 2.23037 1.71732 2.23037H1.7264H1.72645ZM3.19898 6.96803H4.59692V4.64029C4.59692 4.51572 4.606 4.39127 4.64291 4.30222C4.74397 4.05331 4.97399 3.79552 5.36016 3.79552C5.86601 3.79552 6.06838 4.17776 6.06838 4.7381V6.968H7.46622V4.57798C7.46622 3.29767 6.77656 2.70195 5.8568 2.70195C5.10268 2.70195 4.77156 3.11972 4.58762 3.40425H4.59695V2.79973H3.19902C3.21736 3.19085 3.19902 6.96795 3.19902 6.96795L3.19898 6.96803Z" fill="white"/>
</g>
<defs>
<clipPath id="clip0_2007_33">
<rect width="6.58976" height="6.1779" fill="white" transform="translate(0.961914 0.790405)"/>
</clipPath>
</defs>
</svg>
