<svg width="15" height="14" viewBox="0 0 15 14" fill="none" xmlns="http://www.w3.org/2000/svg">
<rect width="15" height="14" fill="#1E1E1E"/>
<g filter="url(#filter0_d_0_1)">
<g filter="url(#filter1_d_0_1)">
<rect x="-27" y="-9" width="593.078" height="32.9488" fill="white"/>
</g>
</g>
<path d="M14.4342 0H0.088266C0.0395529 0 0 0.0397265 0 0.0887345V13.8876C0 13.9366 0.0395529 13.9764 0.088266 13.9764H14.4342C14.4829 13.9764 14.5222 13.9366 14.5222 13.8876V0.0887345C14.5222 0.0397265 14.4829 0 14.4342 0Z" fill="#545BE8"/>
<path d="M3.83813 3.07582V10.9006" stroke="white" stroke-width="1.26926"/>
<path d="M6.18283 3.07582V6.9734" stroke="white" stroke-width="1.26685"/>
<path d="M7.96899 3.07608V4.39995H10.2064L11.8294 7.75368H13.2908L10.9698 3.07608H7.96899Z" fill="white"/>
<path d="M8.63382 5.83464V11.0559" stroke="white" stroke-width="1.46628"/>
<defs>
<filter id="filter0_d_0_1" x="-31" y="-9" width="601.078" height="40.9488" filterUnits="userSpaceOnUse" color-interpolation-filters="sRGB">
<feFlood flood-opacity="0" result="BackgroundImageFix"/>
<feColorMatrix in="SourceAlpha" type="matrix" values="0 0 0 0 0 0 0 0 0 0 0 0 0 0 0 0 0 0 127 0" result="hardAlpha"/>
<feOffset dy="4"/>
<feGaussianBlur stdDeviation="2"/>
<feComposite in2="hardAlpha" operator="out"/>
<feColorMatrix type="matrix" values="0 0 0 0 0 0 0 0 0 0 0 0 0 0 0 0 0 0 0.25 0"/>
<feBlend mode="normal" in2="BackgroundImageFix" result="effect1_dropShadow_0_1"/>
<feBlend mode="normal" in="SourceGraphic" in2="effect1_dropShadow_0_1" result="shape"/>
</filter>
<filter id="filter1_d_0_1" x="-35.2372" y="-15.5898" width="609.552" height="49.4232" filterUnits="userSpaceOnUse" color-interpolation-filters="sRGB">
<feFlood flood-opacity="0" result="BackgroundImageFix"/>
<feColorMatrix in="SourceAlpha" type="matrix" values="0 0 0 0 0 0 0 0 0 0 0 0 0 0 0 0 0 0 127 0" result="hardAlpha"/>
<feOffset dy="1.64744"/>
<feGaussianBlur stdDeviation="4.1186"/>
<feComposite in2="hardAlpha" operator="out"/>
<feColorMatrix type="matrix" values="0 0 0 0 0 0 0 0 0 0 0 0 0 0 0 0 0 0 0.1 0"/>
<feBlend mode="normal" in2="BackgroundImageFix" result="effect1_dropShadow_0_1"/>
<feBlend mode="normal" in="SourceGraphic" in2="effect1_dropShadow_0_1" result="shape"/>
</filter>
</defs>
</svg>
