<svg width="20" height="20" viewBox="0 0 10 9" fill="none" xmlns="http://www.w3.org/2000/svg">
<path d="M4.64413 0.422591C4.70578 0.232866 4.97419 0.232866 5.03583 0.422592L5.90337 3.09259C5.93094 3.17743 6.01 3.23488 6.09922 3.23488H8.90662C9.10611 3.23488 9.18905 3.49015 9.02766 3.60741L6.75643 5.25756C6.68425 5.31 6.65405 5.40295 6.68162 5.4878L7.54915 8.15779C7.6108 8.34752 7.39365 8.50528 7.23226 8.38803L4.96103 6.73788C4.88885 6.68544 4.79112 6.68544 4.71894 6.73788L2.44771 8.38803C2.28632 8.50528 2.06917 8.34752 2.13081 8.15779L2.99835 5.4878C3.02592 5.40295 2.99571 5.31 2.92354 5.25756L0.652305 3.60741C0.490915 3.49015 0.573859 3.23488 0.773348 3.23488H3.58075C3.66996 3.23488 3.74903 3.17743 3.7766 3.09259L4.64413 0.422591Z" fill="#F1CC4A"/>
</svg>
