<svg width="9" height="6" viewBox="0 0 9 6" fill="none" xmlns="http://www.w3.org/2000/svg">
<g clip-path="url(#clip0_2007_28)">
<path d="M8.10302 0.904643C7.82833 1.02181 7.53698 1.09871 7.23864 1.1328C7.54939 0.953475 7.78799 0.669505 7.90035 0.331157C7.60494 0.499941 7.28174 0.61886 6.9447 0.682775C6.67017 0.401177 6.27907 0.225189 5.84619 0.225189C5.01505 0.225189 4.3412 0.873965 4.3412 1.67415C4.3412 1.78773 4.35452 1.8983 4.38017 2.00438C3.12942 1.94394 2.02051 1.36708 1.27822 0.490427C1.14871 0.704432 1.07449 0.953365 1.07449 1.21888C1.07449 1.7216 1.3402 2.16509 1.74399 2.42495C1.505 2.41774 1.27127 2.35559 1.06231 2.24369C1.06223 2.24976 1.06223 2.25583 1.06223 2.26192C1.06223 2.96397 1.58098 3.54963 2.26942 3.68274C2.04781 3.74077 1.81535 3.74926 1.58981 3.70757C1.7813 4.28324 2.3371 4.70214 2.99563 4.71387C2.48057 5.10248 1.83165 5.33414 1.12658 5.33414C1.00509 5.33414 0.885318 5.32727 0.767578 5.31389C1.43358 5.72502 2.22464 5.9649 3.07452 5.9649C5.8427 5.9649 7.35641 3.75695 7.35641 1.84219C7.35641 1.77934 7.35497 1.71685 7.35205 1.65472C7.64668 1.44965 7.90098 1.19565 8.10302 0.904643" fill="white"/>
</g>
<defs>
<clipPath id="clip0_2007_28">
<rect width="7.41348" height="5.76604" fill="white" transform="translate(0.780762 0.202393)"/>
</clipPath>
</defs>
</svg>
